# Blender v3.0.0 OBJ File: 'fern.blend'
# www.blender.org
mtllib pm_fern.mtl
o Fern
v 0.211257 -0.025748 0.026403
v 0.076389 0.179763 0.673439
v -0.191199 0.116546 0.117527
v -0.017532 0.047214 0.039777
v -0.461922 0.160523 -0.010159
v -0.540352 0.468116 -0.890393
v 0.014820 -0.042008 0.074469
v 0.013151 0.059183 -0.060711
v 0.236928 0.105920 -0.376910
v 0.274095 0.201634 -0.512715
v 0.032602 0.358500 -0.597008
v -0.253157 0.480894 -0.714297
v -0.407850 0.501648 -0.830981
v -0.509399 0.468248 -0.800553
v -0.427991 0.469054 -0.619320
v -0.486520 0.353385 -0.316042
v -0.369233 0.077242 0.068174
v -0.078136 0.042616 0.023629
v 0.022338 0.010452 -0.021843
v -0.041565 0.084041 -0.045941
v -0.132550 0.158950 0.086594
v -0.168751 0.201492 0.170298
v -0.071718 0.183021 0.138133
v 0.063419 0.089391 0.015378
v -0.766067 0.280903 0.304029
v -0.071578 -0.028847 -0.066909
v -0.170133 0.024855 -0.155565
v -0.381570 0.168587 -0.132685
v -0.524649 0.216284 -0.001543
v -0.628383 0.323390 0.151658
v -0.581693 0.290510 0.283867
v -0.365528 0.201148 0.264676
v -0.180931 0.085788 0.188039
v -0.130348 0.016737 0.122867
v -0.194650 0.055535 -0.091020
v 0.468968 0.236862 -0.225417
v 0.293252 0.220930 -0.262077
v -0.026594 0.035584 0.112541
v -0.090221 0.077429 0.225942
v -0.327841 0.060695 0.357102
v -0.275432 0.047216 0.145513
v -0.196243 -0.017471 -0.002443
v -0.087889 -0.043472 0.009428
v -0.066166 0.086751 0.027754
v -0.309183 0.032144 0.479380
v -0.218334 0.078956 0.377237
v 0.000723 0.008016 -0.050260
v 0.030303 0.186017 0.146947
v 0.153430 0.405509 0.207025
v 0.303155 0.424489 0.245189
v 0.384105 0.451120 0.290181
v 0.328401 0.439236 0.185743
v 0.228963 0.406627 0.095295
v 0.194674 0.175002 0.026624
v 0.100037 0.093867 -0.088587
v 0.618451 0.202101 -0.311599
v 0.285581 0.186185 -0.138124
v 0.368498 0.164312 -0.085476
v 0.219433 0.073710 0.002998
v 0.149591 0.061404 -0.076206
v 0.110608 0.127051 -0.165808
v 0.038229 -0.000849 -0.016244
v 0.030156 -0.022830 0.028359
v 0.134430 0.034413 0.036791
v 0.267489 0.100838 -0.135397
v 0.331557 0.089474 -0.274175
v 0.407400 0.043591 -0.398382
v 0.265257 0.109681 -0.330672
v 0.109439 0.100043 -0.249839
v -0.049423 0.011312 -0.073635
v 0.183362 0.263388 -0.543062
v 0.020798 0.449231 -0.123516
v -0.053795 0.443926 -0.116188
v -0.007224 0.505404 -0.159992
v -0.068611 0.038119 -0.036619
v 0.019790 0.072824 -0.009878
v 0.055816 0.167076 -0.034187
v 0.039233 0.338875 -0.034338
v -0.082303 0.363493 -0.053440
v -0.084366 0.229979 -0.017542
v -0.130616 0.137548 -0.006811
v -0.013436 -0.074927 -0.008521
v -0.044575 -0.011955 0.062625
v 0.050489 0.060179 0.157116
v 0.203924 0.078469 0.275084
v 0.242912 0.090544 0.341725
v 0.244471 0.127661 0.195895
v 0.155022 0.063609 0.056622
v 0.062969 -0.015881 -0.048259
v -0.368452 0.125595 -0.119863
v -0.165750 0.065620 -0.141868
v -0.485184 0.063785 -0.343024
v -0.071689 -0.028326 0.034045
v -0.048385 0.026472 -0.035246
v -0.350685 0.121588 -0.096273
v -0.246411 0.094014 -0.014077
v -0.145238 0.019393 0.085711
v -0.274919 0.109766 -0.219040
v -0.388706 0.093323 -0.271823
v -0.421062 0.125756 -0.189565
v -0.185270 0.143515 0.226548
v -0.083981 0.216167 0.356958
v -0.043357 0.281396 0.513358
v 0.095206 0.225722 0.511474
v 0.218051 0.146460 0.312179
v 0.240737 0.050851 0.162700
v -0.079468 -0.021139 -0.083044
v -0.199780 0.081754 0.059730
v 0.087878 -0.022093 -0.131685
v -0.079198 -0.044172 0.048086
v 0.055450 0.015425 0.049094
v 0.181091 -0.035595 0.177905
v 0.302428 -0.045852 0.223292
v 0.428710 0.091050 0.068250
v 0.610432 0.189789 -0.164825
v 0.761661 0.128323 -0.405252
v 0.508215 0.261094 -0.367792
v 0.260044 0.263115 -0.404553
v -0.068149 0.104142 -0.394940
v -0.078954 0.086430 -0.246603
v 0.001285 0.051122 -0.044786
v -0.294137 0.126685 -0.154651
v -0.386201 0.119679 -0.215257
v -0.013217 0.422096 -0.106305
v -0.008823 0.205803 -0.049292
v -0.025661 0.357808 -0.025736
v 0.078016 0.062275 0.084204
v 0.208112 0.102501 0.220763
v 0.100571 0.162576 0.086590
v 0.174149 0.390145 0.149301
v 0.275130 0.425000 0.201160
v 0.151242 0.113958 -0.130991
v 0.263099 0.127776 -0.257476
v -0.168619 0.074652 0.141373
v -0.268775 0.076881 0.334722
v -0.194782 0.037162 -0.031199
v -0.262475 0.117323 0.010730
v -0.394278 0.246078 0.110317
v -0.552831 0.315560 0.176674
v -0.384548 0.221715 0.181208
v -0.473645 0.246510 0.056883
v -0.297861 0.169323 -0.056437
v -0.198666 0.133195 0.105400
v -0.143666 0.060843 0.070003
v -0.170813 0.060114 -0.085848
v 0.492083 0.249295 -0.307178
v 0.549329 0.207744 -0.193241
v -0.056251 0.054477 -0.062463
v -0.121761 0.207228 -0.221452
v -0.194280 0.341223 -0.398651
v -0.328322 0.460146 -0.651689
v -0.417163 0.490216 -0.764381
v 0.157548 0.095422 -0.244010
v -0.161868 0.444726 -0.668522
v -0.247279 0.421311 -0.495391
v -0.461722 0.295490 -0.159434
v -0.444398 0.439910 -0.513872
v -0.213282 0.060293 0.046810
v -0.231776 0.156091 -0.050016
v -0.275624 0.275178 -0.181224
v -0.314669 0.359964 -0.378819
v -0.353724 0.438101 -0.529780
v -0.219779 0.435132 -0.590700
v -0.095253 0.361186 -0.517744
v 0.071276 0.243184 -0.372551
v 0.116022 0.159514 -0.301282
v 0.003983 0.093418 0.129403
v 0.036898 0.194917 0.237263
v 0.031824 0.256114 0.419508
v -0.070761 0.154456 0.080848
v -0.069218 0.128450 -0.006523
v 0.016628 0.142167 0.051182
v -0.030731 0.081698 0.031527
vt 0.000000 0.578371
vt 0.025270 0.509504
vt 0.106674 0.486301
vt 0.119923 0.553832
vt 0.110141 0.928542
vt 0.097500 0.967568
vt 0.069349 0.936806
vt 0.087461 0.914787
vt 0.719556 0.318788
vt 0.718141 0.385183
vt 0.686677 0.381082
vt 0.685487 0.314840
vt 0.752142 1.000000
vt 0.723953 0.938112
vt 0.764602 0.911501
vt 0.795478 0.937117
vt 0.809101 0.640327
vt 0.783171 0.559277
vt 0.835798 0.545339
vt 0.840587 0.635346
vt 0.123543 0.239383
vt 0.101089 0.363996
vt 0.072604 0.350802
vt 0.075160 0.229384
vt 0.441375 0.427027
vt 0.463368 0.419608
vt 0.477529 0.435178
vt 0.458283 0.459947
vt 0.644770 0.439729
vt 0.642497 0.558825
vt 0.588525 0.581655
vt 0.584812 0.459366
vt 0.645237 0.631843
vt 0.623061 0.652572
vt 0.466910 0.389501
vt 0.497787 0.385391
vt 0.562263 0.239402
vt 0.576114 0.330073
vt 0.540638 0.345695
vt 0.529409 0.274061
vt 0.472018 0.610468
vt 0.549598 0.612225
vt 0.537951 0.689006
vt 0.421643 0.689375
vt 0.109749 0.157270
vt 0.164109 0.121386
vt 0.274161 0.109318
vt 0.242342 0.193110
vt 0.293271 0.178503
vt 0.290090 0.272663
vt 0.236476 0.306333
vt 0.161882 0.328187
vt 0.264902 0.399667
vt 0.242761 0.419781
vt 0.301515 0.441061
vt 0.308969 0.508885
vt 0.331662 0.393186
vt 0.361380 0.408992
vt 0.335855 0.292374
vt 0.424033 0.272941
vt 0.346331 0.195145
vt 0.474030 0.162839
vt 0.331178 0.106545
vt 0.422914 0.123464
vt 0.297834 0.108166
vt 0.302222 0.047239
vt 0.670956 0.220715
vt 0.644566 0.324538
vt 0.633353 0.246149
vt 0.682289 0.425873
vt 0.703067 0.435085
vt 0.700906 0.482516
vt 0.661687 0.432863
vt 0.646122 0.385373
vt 0.650155 0.397678
vt 0.711214 0.244173
vt 0.437397 0.386712
vt 0.481944 0.315719
vt 0.519368 0.302872
vt 0.463891 0.234773
vt 0.509656 0.258520
vt 0.447825 0.326948
vt 0.432540 0.280936
vt 0.582947 0.406919
vt 0.563093 0.420051
vt 0.602709 0.408688
vt 0.614077 0.438688
vt 0.611849 0.335313
vt 0.606374 0.268051
vt 0.033954 0.357809
vt 0.026492 0.241562
vt 0.012991 0.167073
vt 0.057624 0.121954
vt 0.109749 0.157270
vt 0.061000 0.395601
vt 0.038150 0.409965
vt 0.069892 0.411202
vt 0.061993 0.450093
vt 0.666948 0.648162
vt 0.657599 0.704175
vt 0.686073 0.588241
vt 0.690304 0.480813
vt 0.884860 0.561945
vt 0.863807 0.652463
vt 0.832561 0.689071
vt 0.832398 0.450063
vt 0.885204 0.476271
vt 0.781488 0.495467
vt 0.801186 0.848766
vt 0.845655 0.839413
vt 0.802691 0.747734
vt 0.864271 0.754955
vt 0.781902 0.666670
vt 0.809101 0.640327
vt 0.746478 0.609752
vt 0.756855 0.676369
vt 0.758223 0.732846
vt 0.759951 0.833557
vt 0.725450 0.839103
vt 0.681152 0.842958
vt 0.661795 0.732525
vt 0.706648 0.738247
vt 0.675301 0.680445
vt 0.705600 0.689549
vt 0.294054 0.373183
vt 0.265643 0.895151
vt 0.218415 0.878730
vt 0.251577 0.833738
vt 0.295887 0.855143
vt 0.206552 0.406604
vt 0.202267 0.496117
vt 0.175252 0.466755
vt 0.166724 0.886049
vt 0.205382 0.938938
vt 0.174250 0.961548
vt 0.224981 0.964723
vt 0.182095 1.000000
vt 0.206664 0.611032
vt 0.128007 0.644763
vt 0.214151 0.729017
vt 0.157864 0.750222
vt 0.216174 0.800075
vt 0.178097 0.835194
vt 0.134136 0.845701
vt 0.058755 0.752366
vt 0.032185 0.673683
vt 0.289648 0.762890
vt 0.362331 0.767249
vt 0.327419 0.643191
vt 0.421643 0.689375
vt 0.331552 0.584143
vt 0.456116 0.644113
vt 0.338179 0.536866
vt 0.410445 0.572357
vt 0.234876 0.486132
vt 0.535320 0.739162
vt 0.424789 0.768673
vt 0.542713 0.812868
vt 0.456131 0.851079
vt 0.564980 0.900316
vt 0.536767 0.938642
vt 0.608362 0.936834
vt 0.550074 1.000000
vt 0.607681 0.853820
vt 0.632840 0.770888
vt 0.627344 0.717716
vt 0.623845 0.683895
vt 0.062099 0.890703
vt 0.085716 0.868262
vt 0.084025 0.823202
vt 0.117119 0.861865
vt 0.114178 0.889966
vt 0.056756 0.856723
vn 0.1428 0.7413 0.6558
vn 0.1455 0.7365 0.6606
vn 0.2640 0.7788 0.5689
vn 0.2914 0.7579 0.5837
vn 0.1726 0.9025 -0.3946
vn 0.0231 0.8950 -0.4453
vn -0.0227 0.8509 -0.5248
vn 0.1299 0.8455 -0.5180
vn 0.2425 0.9275 0.2845
vn 0.2323 0.9629 -0.1370
vn 0.2519 0.9675 -0.0197
vn 0.3365 0.9202 0.1998
vn -0.0112 0.9694 0.2450
vn 0.1714 0.9541 0.2454
vn 0.2282 0.9731 -0.0302
vn 0.0567 0.9977 -0.0382
vn -0.1095 0.9881 0.1077
vn 0.0524 0.9728 -0.2257
vn -0.0060 0.9343 -0.3564
vn -0.1789 0.9836 0.0198
vn -0.4009 0.6188 -0.6755
vn -0.4203 0.8128 -0.4033
vn -0.5138 0.7085 -0.4837
vn -0.4809 0.6379 -0.6015
vn -0.0080 0.6236 0.7817
vn 0.0416 0.6581 0.7518
vn 0.0721 0.5930 0.8019
vn 0.0443 0.5389 0.8412
vn -0.2967 0.8937 0.3364
vn -0.1886 0.9498 0.2495
vn -0.2651 0.9633 0.0414
vn -0.3708 0.8840 0.2847
vn 0.1251 0.9921 -0.0018
vn 0.2047 0.9688 -0.1392
vn 0.0146 0.3756 0.9267
vn 0.0000 0.2538 0.9672
vn -0.4387 0.7809 -0.4445
vn -0.3941 0.8727 -0.2881
vn -0.3716 0.8946 -0.2481
vn -0.4830 0.7771 -0.4036
vn 0.1288 0.9444 -0.3025
vn 0.1188 0.9096 -0.3981
vn 0.1481 0.8925 -0.4260
vn 0.1909 0.8830 -0.4288
vn -0.3410 0.9099 0.2360
vn -0.2855 0.9376 0.1986
vn 0.0261 0.7913 0.6108
vn -0.2805 0.8841 0.3736
vn -0.2407 0.8719 0.4265
vn -0.2514 0.8698 0.4244
vn -0.2249 0.9344 0.2761
vn -0.2453 0.9320 0.2666
vn 0.1596 0.9639 0.2132
vn 0.2265 0.9589 0.1707
vn 0.4158 0.9030 0.1079
vn 0.4340 0.8959 0.0941
vn 0.2057 0.9366 0.2835
vn 0.2656 0.9299 0.2544
vn -0.0983 0.8744 0.4752
vn -0.1475 0.8585 0.4912
vn -0.2778 0.8607 0.4266
vn -0.1856 0.8409 0.5084
vn -0.3303 0.9337 0.1381
vn -0.1423 0.8531 0.5019
vn -0.1400 0.9063 0.3988
vn -0.1214 0.9117 0.3924
vn 0.3456 0.9107 0.2259
vn 0.4810 0.8755 0.0458
vn 0.5721 0.8201 0.0078
vn 0.0112 0.9677 -0.2520
vn 0.0474 0.9183 -0.3929
vn -0.0229 0.9223 -0.3857
vn -0.0314 0.9843 -0.1738
vn 0.2104 0.9772 0.0282
vn 0.0167 0.9994 -0.0301
vn -0.0055 0.8809 0.4733
vn -0.0204 0.4394 0.8980
vn 0.0105 0.0147 0.9998
vn -0.1967 0.1205 0.9730
vn 0.0637 0.0831 0.9945
vn -0.2515 0.2249 0.9413
vn 0.2042 -0.0092 0.9789
vn 0.3600 -0.0630 0.9308
vn -0.3904 0.9161 0.0906
vn -0.3916 0.9200 0.0117
vn -0.4624 0.8642 0.1986
vn -0.5317 0.8141 0.2334
vn -0.3532 0.9268 -0.1273
vn -0.3875 0.7819 -0.4882
vn -0.5048 0.7644 -0.4011
vn -0.6106 0.5723 -0.5474
vn -0.5497 0.7782 -0.3036
vn -0.3387 0.7945 -0.5041
vn -0.1073 0.7460 -0.6572
vn -0.2461 0.9681 -0.0464
vn -0.3056 0.9507 0.0533
vn -0.2785 0.9591 0.0494
vn -0.3103 0.9450 0.1026
vn 0.3680 0.9288 -0.0438
vn 0.3948 0.9083 -0.1384
vn 0.1380 0.9525 0.2713
vn -0.1864 0.8948 0.4055
vn -0.1645 0.9370 -0.3079
vn -0.2311 0.9672 0.1052
vn -0.2021 0.9501 0.2374
vn 0.0704 0.8538 -0.5159
vn 0.0138 0.8408 -0.5412
vn 0.1402 0.8651 -0.4816
vn 0.2358 0.9097 -0.3416
vn 0.1295 0.9135 -0.3855
vn 0.4780 0.8516 -0.2152
vn 0.2592 0.8848 -0.3871
vn 0.6467 0.7619 -0.0355
vn 0.5769 0.7124 -0.3996
vn 0.6215 0.7785 -0.0873
vn 0.6113 0.7914 -0.0008
vn 0.6141 0.7840 -0.0908
vn 0.4578 0.8846 -0.0890
vn 0.4859 0.8638 0.1329
vn 0.4860 0.8450 0.2230
vn 0.7054 0.6828 0.1902
vn 0.6396 0.7659 -0.0658
vn 0.8554 0.4931 0.1584
vn 0.7555 0.6468 -0.1041
vn 0.0514 0.9527 0.2996
vn 0.0625 0.9575 0.2816
vn 0.0477 0.9733 0.2244
vn 0.2164 0.9286 0.3013
vn 0.2084 0.9146 0.3465
vn 0.3088 0.8455 0.4355
vn 0.3058 0.8079 0.5037
vn 0.4695 0.8002 0.3731
vn 0.0305 0.9805 0.1939
vn -0.0971 0.9809 0.1684
vn -0.2271 0.9669 0.1164
vn -0.1852 0.9704 0.1552
vn -0.2813 0.9535 0.1078
vn 0.3674 0.7820 0.5034
vn 0.2631 0.8298 0.4921
vn 0.2854 0.8543 0.4343
vn 0.1687 0.8885 0.4267
vn 0.2141 0.8993 0.3811
vn 0.1061 0.9410 0.3214
vn 0.1130 0.9289 0.3525
vn 0.1161 0.9178 0.3797
vn 0.1317 0.8514 0.5076
vn 0.3143 0.8639 0.3935
vn 0.3189 0.8686 0.3792
vn 0.3658 0.8009 0.4740
vn 0.4116 0.8062 0.4250
vn 0.4277 0.7385 0.5213
vn 0.5069 0.7216 0.4714
vn 0.3769 0.7885 0.4860
vn 0.5936 0.6265 0.5051
vn 0.1021 0.8476 0.5207
vn 0.1407 0.8596 -0.4911
vn 0.2737 0.7906 -0.5477
vn 0.1211 0.8767 -0.4655
vn 0.3709 0.8346 -0.4073
vn 0.1885 0.9672 -0.1701
vn 0.3908 0.9175 0.0732
vn 0.2036 0.9788 0.0216
vn 0.3671 0.9066 0.2081
vn -0.1534 0.8993 -0.4094
vn -0.0415 0.8886 -0.4567
vn 0.1213 0.8989 -0.4211
vn 0.1030 0.8459 -0.5233
vn -0.1648 0.5953 -0.7864
vn 0.3213 0.7570 -0.5690
vn 0.3061 0.6815 -0.6646
vn 0.7811 0.6178 -0.0905
vn 0.6332 0.7532 -0.1782
vn -0.1864 0.4702 -0.8626
g Fern_Fern_Fern
usemtl Fern
s 1
f 5/1/1 17/2/2 158/3/3 159/4/4
f 21/5/5 22/6/6 23/7/7 170/8/8
f 91/9/9 98/10/10 122/11/11 35/12/12
f 25/13/13 31/14/14 139/15/15 30/16/16
f 46/17/17 39/18/18 134/19/19 135/20/20
f 48/21/21 49/22/22 130/23/23 129/24/24
f 73/25/25 124/26/26 72/27/27 74/28/28
f 63/29/29 132/30/30 69/31/31 70/32/32
f 69/31/31 132/30/30 133/33/33 68/34/34
f 72/27/27 124/26/26 126/35/35 78/36/36
f 82/37/37 127/38/38 88/39/39 89/40/40
f 109/41/41 107/42/42 4/43/43 1/44/44
f 119/45/45 120/46/46 121/47/47 61/48/48
f 61/48/48 60/49/49 57/50/50 37/51/51
f 118/52/52 37/51/51 146/53/53 117/54/54
f 117/54/54 146/53/53 56/55/55 116/56/56
f 116/56/56 56/55/55 147/57/57 115/58/58
f 115/58/58 147/57/57 58/59/59 114/60/60
f 114/60/60 58/59/59 59/61/61 113/62/62
f 113/62/62 59/61/61 111/63/63 112/64/64
f 111/63/63 62/65/65 110/66/66
f 110/66/66 62/65/65 121/47/47
f 93/67/67 35/12/12 96/68/68 97/69/69
f 123/70/70 99/71/71 92/72/72
f 100/73/73 123/70/70 92/72/72
f 122/11/11 98/10/10 99/71/71 123/70/70
f 95/74/74 122/11/11 123/70/70 100/73/73 90/75/75
f 35/12/12 93/67/67 94/76/76 91/9/9
f 96/68/68 35/12/12 122/11/11 95/74/74
f 126/35/35 124/26/26 73/25/25 79/77/77
f 78/36/36 126/35/35 125/78/78 77/79/79
f 77/79/79 125/78/78 75/80/80 76/81/81
f 75/80/80 125/78/78 80/82/82 81/83/83
f 80/82/82 125/78/78 126/35/35 79/77/77
f 88/39/39 127/38/38 128/84/84 87/85/85
f 87/85/85 128/84/84 85/86/86 86/87/87
f 85/86/86 128/84/84 127/38/38 84/88/88
f 84/88/88 127/38/38 82/37/37 83/89/89
f 129/24/24 130/23/23 53/90/90 54/91/91
f 54/91/91 55/92/92 47/93/93 129/24/24
f 47/93/93 44/94/94 48/21/21 129/24/24
f 53/90/90 130/23/23 131/95/95 52/96/96
f 52/96/96 131/95/95 50/97/97 51/98/98
f 50/97/97 131/95/95 130/23/23 49/22/22
f 68/34/34 133/33/33 66/99/99 67/100/100
f 66/99/99 133/33/33 132/30/30 65/101/101
f 65/101/101 132/30/30 63/29/29 64/102/102
f 135/20/20 134/19/19 41/103/103 40/104/104
f 40/104/104 45/105/105 46/17/17 135/20/20
f 41/103/103 134/19/19 43/106/106 42/107/107
f 43/106/106 134/19/19 39/18/18 38/108/108
f 30/16/16 139/15/15 141/109/109 29/110/110
f 29/110/110 141/109/109 142/111/111 28/112/112
f 28/112/112 142/111/111 145/113/113 27/114/114
f 27/114/114 145/113/113 26/115/115
f 26/115/115 145/113/113 136/116/116
f 136/116/116 145/113/113 142/111/111 137/117/117
f 137/117/117 142/111/111 141/109/109 138/118/118
f 138/118/118 141/109/109 139/15/15
f 138/118/118 139/15/15 140/119/119
f 140/119/119 139/15/15 31/14/14 32/120/120
f 32/120/120 33/121/121 143/122/122 140/119/119
f 143/122/122 33/121/121 34/123/123 144/124/124
f 144/124/124 34/123/123 26/115/115
f 144/124/124 26/115/115 136/116/116
f 144/124/124 136/116/116 137/117/117 143/122/122
f 143/122/122 137/117/117 138/118/118 140/119/119
f 61/48/48 121/47/47 62/65/65 60/49/49
f 111/63/63 59/61/61 60/49/49 62/65/65
f 147/57/57 56/55/55 36/125/125
f 37/51/51 118/52/52 119/45/45 61/48/48
f 58/59/59 147/57/57 36/125/125 57/50/50
f 146/53/53 37/51/51 57/50/50 36/125/125
f 59/61/61 58/59/59 57/50/50 60/49/49
f 56/55/55 146/53/53 36/125/125
f 12/126/126 151/127/127 163/128/128 154/129/129
f 7/130/130 148/131/131 18/132/132
f 15/133/133 151/127/127 152/134/134 14/135/135
f 14/135/135 152/134/134 13/136/136 6/137/137
f 13/136/136 152/134/134 151/127/127 12/126/126
f 159/4/4 158/3/3 18/132/132 148/131/131
f 148/131/131 149/138/138 160/139/139 159/4/4
f 160/139/139 149/138/138 150/140/140 161/141/141
f 161/141/141 150/140/140 155/142/142 162/143/143
f 162/143/143 155/142/142 151/127/127
f 151/127/127 15/133/133 157/144/144 162/143/143
f 157/144/144 16/145/145 161/141/141 162/143/143
f 16/145/145 156/146/146 160/139/139 161/141/141
f 156/146/146 5/1/1 159/4/4 160/139/139
f 154/129/129 163/128/128 164/147/147 11/148/148
f 11/148/148 164/147/147 165/149/149 71/150/150
f 71/150/150 165/149/149 166/151/151 10/152/152
f 10/152/152 166/151/151 153/153/153 9/154/154
f 153/153/153 166/151/151 148/131/131 8/155/155
f 8/155/155 148/131/131 7/130/130
f 148/131/131 166/151/151 165/149/149 149/138/138
f 149/138/138 165/149/149 164/147/147 150/140/140
f 150/140/140 164/147/147 163/128/128 155/142/142
f 155/142/142 163/128/128 151/127/127
f 1/44/44 4/43/43 167/156/156 106/157/157
f 106/157/157 167/156/156 168/158/158 105/159/159
f 105/159/159 168/158/158 169/160/160 104/161/161
f 104/161/161 169/160/160 103/162/162 2/163/163
f 103/162/162 169/160/160 168/158/158 102/164/164
f 102/164/164 168/158/158 167/156/156 101/165/165
f 101/165/165 167/156/156 4/43/43 3/166/166
f 3/166/166 4/43/43 107/42/42 108/167/167
f 170/8/8 23/7/7 172/168/168 173/169/169
f 19/170/170 20/171/171 171/172/172 173/169/169
f 173/169/169 172/168/168 24/173/173 19/170/170
f 173/169/169 171/172/172 21/5/5 170/8/8
