# Blender v3.0.0 OBJ File: 'Flowers.blend'
# www.blender.org
mtllib pm_susan.mtl
o Susan
v 0.191110 0.204112 0.016275
v 0.157785 0.433138 0.042353
v -0.111425 -0.051281 0.028240
v -0.174326 0.027516 0.020154
v 0.158017 0.228625 -0.062204
v 0.167424 0.315270 -0.082645
v 0.131853 0.376900 -0.067095
v 0.135250 0.444001 -0.067641
v 0.021473 0.561910 -0.002414
v -0.258521 0.209554 -0.020347
v 0.040622 -0.116907 0.047908
v -0.035352 0.005056 0.070928
v -0.015044 0.082298 0.048593
v -0.068169 0.167379 0.046668
v -0.131445 0.205139 0.077996
v -0.203676 0.510936 0.094413
v 0.027700 0.014385 0.046009
v 0.052373 0.097918 0.030695
v -0.009795 0.184473 -0.014893
v -0.073028 0.217575 -0.030854
v -0.159736 0.515457 -0.014037
v -0.049501 0.155156 0.070667
v 0.009537 0.239046 0.062248
v 0.012447 0.307822 0.070642
v 0.051876 0.356468 0.061401
v -0.013435 0.494382 0.099267
v 0.134619 0.023746 -0.011385
v 0.099358 0.191307 0.018399
v 0.048292 -0.059885 -0.022126
v 0.155014 0.134711 -0.017742
v 0.243144 0.267330 -0.012297
v 0.233691 0.332287 0.003851
v 0.258787 0.427738 0.004401
v 0.328067 0.504093 -0.005371
v 0.081178 -0.100073 0.022263
v 0.133049 0.119075 -0.026729
v 0.050879 0.043670 0.026234
v 0.142106 0.210792 -0.053148
v 0.025802 0.103362 0.013714
v -0.048455 0.209330 -0.162531
v 0.032267 0.395492 -0.152944
v 0.019684 0.459249 -0.182207
v 0.059050 0.541675 -0.171629
v 0.156574 0.145759 -0.041188
v 0.018288 0.433410 0.080733
v 0.068445 0.118689 0.017702
v 0.135212 0.312231 0.033917
v 0.168479 0.502148 0.054767
v 0.172861 0.559021 0.065586
v 0.270440 0.573125 0.031803
v 0.017548 0.541041 0.103897
v 0.224623 0.405445 -0.024219
v -0.012701 -0.038246 -0.051663
v 0.051422 0.092627 -0.054571
v 0.139780 0.271418 -0.084817
v 0.155125 0.496250 -0.091672
v 0.161175 0.575714 -0.099300
v 0.227182 0.524742 -0.044975
v 0.203778 0.362508 -0.051748
v 0.126694 -0.012970 0.051567
v -0.035752 0.027426 -0.084474
v -0.008996 0.235038 -0.006385
v -0.110164 0.308568 0.036348
v -0.014139 0.312611 -0.006796
v -0.172479 0.418723 0.065613
v -0.047980 0.409775 0.008233
v -0.007960 0.683708 0.015457
v -0.135182 0.781205 0.054365
v -0.193391 0.658973 0.102047
v -0.072382 0.532799 0.032544
v -0.158773 0.136515 0.003640
v -0.278440 0.581093 -0.036086
v -0.323498 0.469208 -0.052274
v -0.094994 0.168898 -0.015512
v -0.311347 0.405668 -0.057105
v -0.126802 0.392306 -0.031845
v -0.168324 0.320313 -0.063038
v -0.015110 -0.014941 0.040649
v -0.059326 0.097491 0.019100
vt 0.724027 0.379146
vt 0.615769 0.358329
vt 0.665919 0.159241
vt 0.482487 0.379275
vt 0.821240 0.805718
vt 0.753680 0.877135
vt 0.649579 0.852713
vt 0.648243 0.789497
vt 0.481384 0.806626
vt 0.455127 0.749678
vt 0.623203 0.576653
vt 0.532896 0.604840
vt 0.497664 0.546081
vt 0.618686 0.444013
vt 0.516175 0.475310
vt 0.723062 0.626055
vt 0.752083 0.557942
vt 0.639228 0.712872
vt 0.488718 0.687119
vt 0.753682 0.719336
vt 0.752083 0.557942
vt 0.881127 0.440918
vt 0.881171 0.671876
vt 0.723062 0.626055
vt 1.000000 0.346891
vt 0.849436 0.233763
vt 0.800175 0.081597
vt 0.978859 0.116052
vt 1.000000 0.574686
vt 0.976092 0.704494
vt 0.878158 0.759372
vt 0.958462 0.537295
vt 0.724027 0.379146
vt 0.756047 0.149579
vt 0.753682 0.719336
vt 0.516175 0.475310
vt 0.458676 0.365315
vt 0.482487 0.379275
vt 0.439166 0.253904
vt 0.478031 0.270364
vt 0.215132 0.195175
vt 0.331342 0.045069
vt 0.324619 0.205391
vt 0.254069 0.274035
vt 0.324376 0.286579
vt 0.227260 0.385143
vt 0.421617 0.153541
vt 0.330182 0.435297
vt 0.497664 0.546081
vt 0.341864 0.504521
vt 0.532896 0.604840
vt 0.345424 0.604782
vt 0.366685 1.000000
vt 0.266960 0.897640
vt 0.225662 0.750428
vt 0.357916 0.740300
vt 0.455127 0.749678
vt 0.242431 0.530894
vt 0.162200 0.437664
vt 0.233441 0.648594
vt 0.463576 0.875547
vt 0.203019 0.057889
vt 0.215132 0.195175
vt 0.254069 0.274035
vt 0.161335 0.180787
vt 0.000000 0.478323
vt 0.117987 0.397474
vt 0.122161 0.563663
vt 0.036528 0.676336
vt 0.144484 0.846268
vt 0.048800 0.742863
vt 0.135116 0.311854
vt 0.046842 0.381744
vt 0.000000 0.279429
vt 0.162200 0.437664
vt 0.198947 0.618768
vt 0.225662 0.750428
vt 0.061011 0.176733
vt 0.227260 0.385143
vn 0.3687 -0.2350 0.8993
vn 0.3663 -0.2172 0.9048
vn 0.3666 -0.2417 0.8984
vn 0.3544 -0.1877 0.9160
vn 0.3447 -0.2037 0.9163
vn 0.3471 -0.2023 0.9157
vn 0.3026 -0.2131 0.9290
vn 0.2983 -0.2056 0.9320
vn 0.2485 -0.2254 0.9420
vn 0.2490 -0.2047 0.9466
vn 0.2983 -0.1570 0.9414
vn 0.2714 -0.1380 0.9525
vn 0.3106 -0.1605 0.9369
vn 0.3426 -0.1924 0.9195
vn 0.3661 -0.1543 0.9177
vn 0.3218 -0.1517 0.9346
vn 0.3222 -0.2092 0.9232
vn 0.2958 -0.1563 0.9424
vn 0.2529 -0.1631 0.9536
vn 0.3373 -0.1694 0.9260
vn -0.4932 0.1550 0.8560
vn -0.5898 0.2731 0.7599
vn -0.5718 0.1210 0.8114
vn -0.5451 0.1271 0.8287
vn -0.6711 0.3635 0.6460
vn -0.5566 0.3023 0.7738
vn -0.5602 0.3003 0.7720
vn -0.6071 0.3048 0.7338
vn -0.5949 0.0563 0.8018
vn -0.5768 0.1399 0.8047
vn -0.5838 0.1460 0.7986
vn -0.6330 0.1062 0.7668
vn -0.4536 0.2621 0.8517
vn -0.4990 0.2931 0.8155
vn -0.5893 0.1508 0.7937
vn 0.3599 0.0922 0.9284
vn 0.3056 0.2233 0.9256
vn 0.3150 0.1950 0.9288
vn 0.3307 0.2266 0.9161
vn 0.2884 0.2348 0.9283
vn 0.4246 0.0940 0.9004
vn 0.4260 0.0968 0.8995
vn 0.4154 0.1616 0.8952
vn 0.4768 0.2614 0.8392
vn 0.4095 0.2852 0.8665
vn 0.4931 0.2464 0.8343
vn 0.4274 0.0997 0.8985
vn 0.4207 0.1613 0.8927
vn 0.3850 0.0003 0.9229
vn 0.4162 0.0409 0.9083
vn 0.3880 -0.0523 0.9202
vn 0.4046 -0.0555 0.9128
vn 0.4149 -0.0104 0.9098
vn 0.4995 0.0018 0.8663
vn 0.4641 -0.0537 0.8841
vn 0.4069 -0.0651 0.9111
vn 0.3572 -0.0764 0.9309
vn 0.4476 0.0751 0.8910
vn 0.4847 0.1872 0.8544
vn 0.4220 -0.0773 0.9033
vn 0.3099 -0.0247 0.9504
vn -0.1490 0.0338 0.9883
vn -0.1832 0.0884 0.9791
vn -0.1106 0.2483 0.9623
vn -0.1371 0.0926 0.9862
vn 0.1064 0.2990 0.9483
vn -0.0302 0.3362 0.9413
vn -0.1027 0.0791 0.9915
vn 0.0013 -0.0129 0.9999
vn -0.1650 -0.1652 0.9724
vn -0.0384 -0.1118 0.9930
vn -0.0732 0.2632 0.9619
vn 0.0124 0.3421 0.9396
vn -0.0983 0.1154 0.9884
vn -0.2143 0.1634 0.9630
vn -0.2996 -0.1532 0.9417
vn -0.2997 -0.2199 0.9283
vn -0.1279 0.0003 0.9918
vn -0.0855 0.3340 0.9387
g Susan_Susan_Susan
usemtl Susan
s 1
f 30/1/1 46/2/2 29/3/3
f 46/2/2 22/4/4 29/3/3
f 34/5/5 50/6/6 49/7/7 48/8/8
f 49/7/7 51/9/9 26/10/10 48/8/8
f 47/11/11 25/12/12 24/13/13 28/14/14
f 28/14/14 24/13/13 23/15/15 22/4/4 46/2/2
f 32/16/16 47/11/11 28/14/14 31/17/17
f 31/17/17 28/14/14 46/2/2 30/1/1
f 2/18/18 45/19/19 25/12/12 47/11/11
f 33/20/20 2/18/18 47/11/11 32/16/16
f 48/8/8 26/10/10 45/19/19 2/18/18
f 48/8/8 2/18/18 33/20/20 34/5/5
s 2
f 41/21/21 55/22/22 56/23/23 42/24/24
f 1/25/25 54/26/26 53/27/27 60/28/28
f 52/29/29 58/30/30 57/31/31 56/23/23
f 59/32/32 55/22/22 54/26/26 1/25/25
f 54/26/26 55/22/22 41/21/21 40/33/33
f 40/33/33 61/34/34 53/27/27 54/26/26
f 42/24/24 56/23/23 57/31/31 43/35/35
f 56/23/23 55/22/22 59/32/32 52/29/29
s 3
f 6/36/36 38/37/37 5/38/38
f 5/38/38 38/37/37 36/39/39 44/40/40
f 12/41/41 35/42/42 37/43/43 13/44/44
f 13/44/44 37/43/43 39/45/45 14/46/46
f 39/45/45 37/43/43 36/39/39 38/37/37
f 37/43/43 35/42/42 27/47/47 36/39/39
f 6/36/36 62/48/48 39/45/45 38/37/37
f 7/49/49 64/50/50 62/48/48 6/36/36
f 8/51/51 66/52/52 64/50/50 7/49/49
f 68/53/53 69/54/54 16/55/55 70/56/56
f 70/56/56 66/52/52 8/51/51 9/57/57
f 62/48/48 64/50/50 63/58/58 15/59/59
f 64/50/50 66/52/52 65/60/60 63/58/58
f 39/45/45 62/48/48 15/59/59 14/46/46
f 70/56/56 16/55/55 65/60/60 66/52/52
f 9/57/57 67/61/61 68/53/53 70/56/56
s 4
f 11/62/62 17/63/63 18/64/64 78/65/65
f 10/66/66 74/67/67 77/68/68 75/69/69
f 75/69/69 77/68/68 72/70/70 73/71/71
f 78/65/65 79/72/72 71/73/73 4/74/74
f 77/68/68 74/67/67 20/75/75 76/76/76
f 72/70/70 77/68/68 76/76/76 21/77/77
f 4/74/74 3/78/78 11/62/62 78/65/65
f 78/65/65 18/64/64 19/79/79 79/72/72
f 71/73/73 79/72/72 74/67/67 10/66/66
f 79/72/72 19/79/79 20/75/75 74/67/67
